<svg fill="none" height="21" viewBox="0 0 22 21" width="22" xmlns="http://www.w3.org/2000/svg" xmlns:xlink="http://www.w3.org/1999/xlink">
    <mask id="maskWebhooks" height="19" maskUnits="userSpaceOnUse" width="21" x="1" y="1">
        <path d="m10.6562 1.01262c-1.60178.1139-3.1387 1.00813-3.99995 2.5-1.207 2.091-.71075 4.709 1.03125 6.25l-1.6875 2.90628c-.689.003-1.34975.36-1.71875 1-.552.956-.23725 2.1657.71875 2.7187.957.552 2.16675.2373 2.71875-.7187.369-.639.343-1.402 0-2l2.65625-4.56253-.875-.5c-1.432-.828-1.92075-2.66075-1.09375-4.09375s2.66075-1.92075 4.09375-1.09375 1.9207 2.66075 1.0938 4.09375l1.75 1c1.378-2.387.5432-5.46575-1.8438-6.84375-.8951-.51675-1.8827-.724587-2.8438-.65625zm.0938 3c-.2579.03206-.5107.11175-.75.25-.956.552-1.27075 1.793-.71875 2.75.369.639 1.03075.997 1.71875 1l2.625 4.56248.875-.5c1.433-.827 3.2668-.3392 4.0938 1.0938.8269 1.433.3392 3.2667-1.0938 4.0937s-3.2668.3393-4.0938-1.0937l-1.75 1c1.3781 2.387 4.4568 3.2227 6.8438 1.8437s3.2227-4.4567 1.8438-6.8437c-1.2071-2.091-3.7315-2.98803-5.9376-2.25003l-1.6874-2.90625c.342-.598.369-1.36 0-2-.414-.71775-1.1952-1.09619-1.9688-1zm-4.75 5.65625c-2.757 0-5 2.24303-5 5.00003s2.243 5 5 5c2.415 0 4.4423-1.721 4.9062-4h3.375c.346.595.9798 1 1.7188 1 1.105 0 2-.895 2-2s-.895-2-2-2c-.738 0-1.3717.405-1.7188 1h-5.2812v1c0 1.654-1.346 3-3 3s-3-1.346-3-3 1.346-3 3-3z"
              fill="#fff"/>
    </mask>
    <g mask="url(#maskWebhooks)">
        <path d="m0 0h22v21h-22z" fill="#242748"/>
    </g>
</svg>